<?xml version="1.0" standalone="no"?>
<!DOCTYPE svg PUBLIC "-//W3C//DTD SVG 20010904//EN"
 "http://www.w3.org/TR/2001/REC-SVG-20010904/DTD/svg10.dtd">
<svg version="1.0" xmlns="http://www.w3.org/2000/svg"
 width="660.000000pt" height="660.000000pt" viewBox="0 0 660.000000 660.000000"
 preserveAspectRatio="xMidYMid meet">

<g transform="translate(0.000000,660.000000) scale(0.100000,-0.100000)"
fill="#000000" stroke="none">
<path d="M5295 3888 c-3 -7 -4 -191 -3 -408 l3 -395 60 0 60 0 5 185 c3 121 9
193 17 207 46 79 153 85 195 10 9 -15 15 -86 18 -212 l5 -190 60 0 60 0 0 200
c0 169 -3 207 -18 247 -46 118 -179 160 -294 92 l-42 -25 -3 148 -3 148 -58 3
c-40 2 -59 -1 -62 -10z m115 -169 l0 -161 32 31 c87 85 241 62 294 -46 16 -33
19 -66 22 -240 l3 -203 -50 0 -51 0 0 180 c0 205 -8 237 -68 266 -46 22 -94
11 -140 -31 l-37 -33 -3 -191 -3 -191 -50 0 -49 0 0 390 0 390 50 0 50 0 0
-161z"/>
<path d="M3712 3848 c-15 -15 -16 -80 0 -96 8 -8 48 -12 115 -12 l103 0 2
-327 3 -328 60 0 60 0 3 327 2 327 108 3 107 3 0 55 0 55 -275 3 c-206 2 -279
-1 -288 -10z m558 -48 l0 -40 -115 0 -115 0 0 -330 0 -330 -50 0 -50 0 0 330
0 330 -110 0 -110 0 0 40 0 40 275 0 275 0 0 -40z"/>
<path d="M1010 3470 l0 -370 230 0 230 0 0 65 0 65 -150 0 -150 0 0 90 0 90
135 0 135 0 0 65 0 65 -135 0 -135 0 0 85 0 85 145 0 145 0 0 65 0 65 -225 0
-225 0 0 -370z"/>
<path d="M4415 3651 c-76 -19 -140 -76 -176 -156 -18 -39 -23 -70 -23 -136 -1
-76 2 -92 29 -145 56 -110 167 -157 319 -136 43 7 89 18 102 26 19 13 21 20
14 52 -5 20 -12 40 -17 45 -5 5 -31 2 -58 -7 -124 -38 -237 9 -261 109 l-6 27
180 0 c148 0 182 3 192 15 16 19 7 119 -15 172 -44 106 -163 162 -280 134z
m163 -30 c76 -39 121 -119 122 -213 l0 -58 -185 0 -185 0 0 -30 c0 -50 36
-107 80 -130 45 -23 155 -28 209 -9 38 13 40 12 43 -31 3 -32 0 -35 -37 -46
-58 -18 -183 -17 -237 2 -93 31 -148 113 -156 230 -8 130 44 235 140 283 57
28 154 29 206 2z"/>
<path d="M4410 3551 c-35 -18 -80 -81 -80 -113 0 -16 13 -18 136 -18 l137 0
-6 41 c-6 47 -29 76 -74 95 -44 19 -72 18 -113 -5z m129 -17 c19 -14 51 -69
51 -89 0 -3 -54 -5 -120 -5 -89 0 -120 3 -120 13 0 20 37 70 62 83 32 18 99
17 127 -2z"/>
<path d="M4987 3649 c-129 -30 -206 -127 -215 -270 -8 -132 44 -231 145 -279
58 -28 171 -33 247 -11 l48 14 -5 44 c-6 58 -18 69 -55 54 -45 -19 -137 -16
-175 6 -100 57 -101 252 -1 313 38 24 137 30 174 10 31 -16 42 -9 56 38 15 53
5 66 -66 81 -59 13 -99 13 -153 0z m176 -20 c36 -10 38 -12 32 -42 -10 -44
-16 -48 -55 -37 -83 24 -178 -1 -218 -57 -50 -71 -51 -185 0 -255 41 -58 134
-82 219 -56 22 6 41 9 44 7 2 -3 6 -20 7 -39 3 -31 0 -36 -32 -47 -50 -17
-173 -16 -217 2 -105 44 -157 129 -158 255 0 62 5 85 28 132 32 64 81 111 142
132 48 17 155 20 208 5z"/>
<path d="M1849 3631 c-36 -12 -71 -30 -95 -53 l-22 -19 -6 35 -7 36 -71 0 -71
0 7 -46 c3 -26 6 -145 6 -265 l0 -219 80 0 80 0 0 165 c0 181 7 211 55 233 38
18 61 15 92 -12 l28 -24 3 -181 3 -181 80 0 79 0 0 186 c0 116 -5 202 -12 227
-28 94 -131 147 -229 118z"/>
<path d="M2407 3630 c-139 -35 -216 -147 -205 -295 6 -73 33 -129 86 -177 51
-46 100 -62 187 -62 174 0 287 123 273 299 -8 99 -67 185 -151 220 -47 20
-141 27 -190 15z m131 -132 c30 -33 42 -71 42 -134 0 -96 -40 -154 -105 -154
-66 0 -105 58 -105 155 0 100 39 155 110 155 25 0 43 -7 58 -22z"/>
<path d="M3119 3631 c-36 -12 -71 -30 -95 -53 l-22 -19 -6 35 -7 36 -71 0 -71
0 7 -52 c3 -29 6 -198 6 -375 l0 -323 80 0 80 0 0 135 0 134 35 -23 c109 -74
267 -18 324 115 32 73 32 185 1 257 -47 108 -156 164 -261 133z m60 -136 c76
-39 82 -208 10 -259 -13 -9 -43 -16 -67 -16 -35 0 -49 6 -73 29 -27 28 -29 34
-29 111 0 80 1 83 34 116 38 38 77 44 125 19z"/>
<path d="M3470 3395 l0 -35 135 0 135 0 0 35 0 35 -135 0 -135 0 0 -35z"/>
</g>
</svg>
